<svg width="21" height="17" viewBox="0 0 21 17" fill="none" xmlns="http://www.w3.org/2000/svg">
<path d="M11.5413 6.55652V6.40869C11.5413 6.55652 9.93426 2.41739 9.34989 1.82608C8.03506 0.495649 6.57414 0.643475 5.5515 0.643475H0.584368C0.292184 0.643475 0 0.791301 0 1.08695V1.23478C0 1.23478 1.60701 5.37391 2.19138 5.81739C3.36012 7 4.38276 7 5.98977 7H11.103C11.3952 7 11.5413 6.85217 11.5413 6.55652Z" fill="#272524"/>
<path d="M20.0146 11.3826C20.0146 8.27826 16.8006 1.47826 16.3623 0.295652C16.3623 0.147826 16.2162 0 15.924 0C15.778 0 15.4858 0.147826 15.4858 0.295652C13.2944 5.46957 11.6874 9.31304 11.6874 9.31304C11.5413 9.75652 11.3952 10.2 11.5413 10.6435C11.6874 11.087 12.5639 12.8609 13.1483 14.3391C14.0249 16.4087 14.1709 17 16.0701 17C18.4076 17 20.0146 14.9304 20.0146 11.3826Z" fill="#272524"/>
</svg>
