<svg width="205" height="47" viewBox="0 0 205 47" fill="none" xmlns="http://www.w3.org/2000/svg">
<g filter="url(#filter0_d_215:4)">
<path d="M58.9176 7.46789C58.465 7.39085 58.0702 7.25122 57.7332 7.049V6.50011H65.4898C65.4898 6.72159 65.4802 6.96715 65.4609 7.23678C65.4417 7.50641 65.4176 7.77604 65.3887 8.04567C65.3598 8.3153 65.3261 8.5753 65.2876 8.82567C65.2491 9.07604 65.2106 9.30233 65.172 9.50455H64.5798L63.6843 7.439H61.0843V10.7323C61.1709 10.7227 61.2769 10.7131 61.402 10.7034C61.5272 10.6842 61.6524 10.6697 61.7776 10.6601C61.9124 10.6505 62.0424 10.6457 62.1676 10.6457C62.3024 10.636 62.418 10.6312 62.5143 10.6312C63.0054 10.6312 63.4724 10.6842 63.9154 10.7901C64.3583 10.896 64.7435 11.0694 65.0709 11.3101C65.408 11.5412 65.6728 11.8446 65.8654 12.2201C66.0676 12.5957 66.1687 13.0483 66.1687 13.5779C66.1687 14.0883 66.0628 14.536 65.8509 14.9212C65.6487 15.3064 65.3646 15.629 64.9987 15.889C64.6424 16.1394 64.2139 16.332 63.7131 16.4668C63.222 16.592 62.6876 16.6545 62.1098 16.6545C62.0617 16.6545 61.9413 16.6497 61.7487 16.6401C61.5561 16.6401 61.3394 16.6353 61.0987 16.6257C60.858 16.6257 60.6172 16.6208 60.3765 16.6112C60.1357 16.6112 59.9432 16.6112 59.7987 16.6112H57.7332V16.0623C57.9161 15.9564 58.1039 15.8697 58.2965 15.8023C58.4987 15.7253 58.7057 15.6723 58.9176 15.6434V7.46789ZM61.8931 11.5701C61.7391 11.5701 61.5898 11.5797 61.4454 11.599C61.3009 11.6086 61.1806 11.6279 61.0843 11.6568V15.6579C61.1228 15.6675 61.1806 15.6771 61.2576 15.6868C61.3443 15.6964 61.4309 15.706 61.5176 15.7157C61.6043 15.7157 61.6861 15.7157 61.7631 15.7157C61.8498 15.7157 61.9172 15.7157 61.9654 15.7157C62.5335 15.7157 62.9765 15.5327 63.2943 15.1668C63.6217 14.8008 63.7854 14.2857 63.7854 13.6212C63.7854 12.9857 63.6361 12.4849 63.3376 12.119C63.0391 11.7531 62.5576 11.5701 61.8931 11.5701Z" fill="white"/>
<path d="M73.4866 14.5168C73.4866 14.7286 73.4866 14.9116 73.4866 15.0657C73.4962 15.2197 73.5107 15.3834 73.5299 15.5568L74.5266 15.7012V16.2068C74.4111 16.2645 74.2522 16.3223 74.0499 16.3801C73.8573 16.4379 73.6503 16.4957 73.4288 16.5534C73.217 16.6016 73.0051 16.6401 72.7933 16.669C72.5814 16.7075 72.3936 16.7364 72.2299 16.7557H71.7388C71.6425 16.5342 71.5848 16.3127 71.5655 16.0912C71.5462 15.8697 71.5318 15.6001 71.5222 15.2823H71.4499C71.4018 15.4749 71.3199 15.6627 71.2044 15.8457C71.0888 16.019 70.9396 16.1779 70.7566 16.3223C70.5833 16.4571 70.3762 16.5679 70.1355 16.6545C69.8948 16.7412 69.6251 16.7845 69.3266 16.7845C69.0088 16.7845 68.7151 16.7364 68.4455 16.6401C68.1759 16.5438 67.9399 16.409 67.7377 16.2357C67.5355 16.0623 67.3766 15.8553 67.2611 15.6145C67.1455 15.3642 67.0877 15.0849 67.0877 14.7768C67.0877 14.3434 67.1696 13.9871 67.3333 13.7079C67.497 13.4286 67.7522 13.2023 68.0988 13.029C68.4551 12.846 68.9077 12.7112 69.4566 12.6246C70.0151 12.5379 70.6892 12.4753 71.4788 12.4368C71.5559 11.6086 71.5222 11.002 71.3777 10.6168C71.2333 10.2316 70.9203 10.039 70.4388 10.039C70.1403 10.039 69.8659 10.0871 69.6155 10.1834L68.9366 11.9168H68.3011C68.224 11.8012 68.147 11.6712 68.0699 11.5268C68.0025 11.3727 67.9351 11.2138 67.8677 11.0501C67.8099 10.8768 67.757 10.7034 67.7088 10.5301C67.6703 10.3568 67.6414 10.1883 67.6222 10.0246C67.9881 9.77418 68.4599 9.57678 69.0377 9.43233C69.6155 9.28789 70.227 9.21567 70.8722 9.21567C71.4211 9.21567 71.8688 9.27826 72.2155 9.40344C72.5622 9.519 72.8318 9.6827 73.0244 9.89455C73.2266 10.0968 73.3662 10.3375 73.4433 10.6168C73.5203 10.896 73.5588 11.1946 73.5588 11.5123C73.5588 12.0901 73.5444 12.6149 73.5155 13.0868C73.4962 13.549 73.4866 14.0257 73.4866 14.5168ZM70.2366 15.629C70.4388 15.629 70.6122 15.5905 70.7566 15.5134C70.9011 15.4364 71.0214 15.3449 71.1177 15.239C71.2236 15.1331 71.3007 15.0175 71.3488 14.8923C71.4066 14.7671 71.4499 14.6564 71.4788 14.5601V13.1157C71.0262 13.1253 70.6555 13.1542 70.3666 13.2023C70.0777 13.2505 69.8514 13.3323 69.6877 13.4479C69.524 13.5538 69.4085 13.6934 69.3411 13.8668C69.2833 14.0305 69.2544 14.2327 69.2544 14.4734C69.2544 14.8394 69.3411 15.1234 69.5144 15.3257C69.6877 15.5279 69.9285 15.629 70.2366 15.629Z" fill="white"/>
<path d="M75.157 9.389H78.9992V9.95233C78.8933 10.0101 78.7681 10.0679 78.6236 10.1257C78.4888 10.1834 78.3251 10.2412 78.1325 10.299V13.549L77.9736 14.8923H78.0459L78.6092 13.809L81.2525 9.389H83.9825V9.95233C83.6744 10.1257 83.3566 10.2412 83.0292 10.299V15.7012C83.2121 15.7494 83.3855 15.8023 83.5492 15.8601C83.7129 15.9082 83.8573 15.9708 83.9825 16.0479V16.6112H80.1403V16.0479C80.4099 15.8938 80.6988 15.7783 81.007 15.7012V12.2923L81.1514 11.1512H81.0792L80.5303 12.2346L77.9159 16.6112H75.157V16.0479C75.3207 15.9708 75.4796 15.9082 75.6336 15.8601C75.7877 15.8023 75.9466 15.7494 76.1103 15.7012V10.299C75.7347 10.2412 75.417 10.1257 75.157 9.95233V9.389ZM79.7503 8.58011C78.797 8.58011 78.1036 8.40678 77.6703 8.06011C77.237 7.71345 77.0203 7.25122 77.0203 6.67345C77.1551 6.55789 77.3525 6.47122 77.6125 6.41345C77.8725 6.34604 78.1422 6.30271 78.4214 6.28345L78.9125 6.47122V7.75678C79.1533 7.8627 79.4373 7.91567 79.7647 7.91567C79.861 7.91567 79.991 7.90604 80.1547 7.88678C80.3281 7.86752 80.4821 7.83863 80.617 7.80011V6.47122L81.1081 6.28345C81.3681 6.30271 81.6233 6.34122 81.8736 6.399C82.124 6.45678 82.3166 6.54826 82.4514 6.67345C82.4514 7.25122 82.2299 7.71345 81.787 8.06011C81.3536 8.40678 80.6747 8.58011 79.7503 8.58011Z" fill="white"/>
<path d="M89.3406 9.389H92.6484V9.95233C92.5521 10.0294 92.4317 10.0968 92.2873 10.1546C92.1525 10.2027 91.9695 10.2653 91.7384 10.3423C91.411 10.7371 91.0739 11.1175 90.7273 11.4834C90.3806 11.8397 90.0436 12.172 89.7162 12.4801C89.928 12.7112 90.1447 12.9616 90.3662 13.2312C90.5876 13.5008 90.8043 13.7801 91.0162 14.069C91.2376 14.3483 91.4591 14.6275 91.6806 14.9068C91.9117 15.186 92.1428 15.4508 92.3739 15.7012L92.9806 16.0479V16.6112H90.7128L90.2506 16.279C89.8365 15.7783 89.4947 15.2775 89.225 14.7768C88.965 14.276 88.7002 13.7801 88.4306 13.289H87.8528V15.7012C88.161 15.7879 88.4306 15.9034 88.6617 16.0479V16.6112H84.8195V16.0479C85.0795 15.8938 85.3973 15.7783 85.7728 15.7012V10.299C85.4358 10.2316 85.118 10.116 84.8195 9.95233V9.389H88.5028V9.95233C88.4065 10.0197 88.3102 10.0823 88.2139 10.1401C88.1273 10.1979 88.0069 10.2508 87.8528 10.299V12.6534L88.5173 12.509C88.7965 12.1912 89.0758 11.8494 89.355 11.4834C89.6343 11.1175 89.8895 10.7371 90.1206 10.3423C89.9569 10.2749 89.8173 10.2123 89.7017 10.1546C89.5862 10.0968 89.4658 10.0294 89.3406 9.95233V9.389Z" fill="white"/>
<path d="M99.7659 14.5168C99.7659 14.7286 99.7659 14.9116 99.7659 15.0657C99.7755 15.2197 99.7899 15.3834 99.8092 15.5568L100.806 15.7012V16.2068C100.69 16.2645 100.531 16.3223 100.329 16.3801C100.137 16.4379 99.9296 16.4957 99.7081 16.5534C99.4962 16.6016 99.2844 16.6401 99.0725 16.669C98.8607 16.7075 98.6729 16.7364 98.5092 16.7557H98.0181C97.9218 16.5342 97.864 16.3127 97.8448 16.0912C97.8255 15.8697 97.8111 15.6001 97.8014 15.2823H97.7292C97.6811 15.4749 97.5992 15.6627 97.4837 15.8457C97.3681 16.019 97.2188 16.1779 97.0359 16.3223C96.8625 16.4571 96.6555 16.5679 96.4148 16.6545C96.174 16.7412 95.9044 16.7845 95.6059 16.7845C95.2881 16.7845 94.9944 16.7364 94.7248 16.6401C94.4551 16.5438 94.2192 16.409 94.017 16.2357C93.8148 16.0623 93.6559 15.8553 93.5403 15.6145C93.4248 15.3642 93.367 15.0849 93.367 14.7768C93.367 14.3434 93.4488 13.9871 93.6125 13.7079C93.7762 13.4286 94.0314 13.2023 94.3781 13.029C94.7344 12.846 95.187 12.7112 95.7359 12.6246C96.2944 12.5379 96.9685 12.4753 97.7581 12.4368C97.8351 11.6086 97.8014 11.002 97.657 10.6168C97.5125 10.2316 97.1996 10.039 96.7181 10.039C96.4196 10.039 96.1451 10.0871 95.8948 10.1834L95.2159 11.9168H94.5803C94.5033 11.8012 94.4262 11.6712 94.3492 11.5268C94.2818 11.3727 94.2144 11.2138 94.147 11.0501C94.0892 10.8768 94.0363 10.7034 93.9881 10.5301C93.9496 10.3568 93.9207 10.1883 93.9014 10.0246C94.2674 9.77418 94.7392 9.57678 95.317 9.43233C95.8948 9.28789 96.5062 9.21567 97.1514 9.21567C97.7003 9.21567 98.1481 9.27826 98.4948 9.40344C98.8414 9.519 99.1111 9.6827 99.3036 9.89455C99.5059 10.0968 99.6455 10.3375 99.7225 10.6168C99.7996 10.896 99.8381 11.1946 99.8381 11.5123C99.8381 12.0901 99.8237 12.6149 99.7948 13.0868C99.7755 13.549 99.7659 14.0257 99.7659 14.5168ZM96.5159 15.629C96.7181 15.629 96.8914 15.5905 97.0359 15.5134C97.1803 15.4364 97.3007 15.3449 97.397 15.239C97.5029 15.1331 97.5799 15.0175 97.6281 14.8923C97.6859 14.7671 97.7292 14.6564 97.7581 14.5601V13.1157C97.3055 13.1253 96.9348 13.1542 96.6459 13.2023C96.357 13.2505 96.1307 13.3323 95.967 13.4479C95.8033 13.5538 95.6877 13.6934 95.6203 13.8668C95.5625 14.0305 95.5337 14.2327 95.5337 14.4734C95.5337 14.8394 95.6203 15.1234 95.7937 15.3257C95.967 15.5279 96.2077 15.629 96.5159 15.629Z" fill="white"/>
<path d="M102.736 14.979C102.977 14.5264 103.155 13.8957 103.271 13.0868C103.386 12.2683 103.449 11.3871 103.458 10.4434C103.266 10.3857 103.078 10.3134 102.895 10.2268C102.722 10.1401 102.568 10.0486 102.433 9.95233V9.389H109.121V9.95233C108.813 10.1257 108.495 10.2412 108.167 10.299V15.7012C108.37 15.7494 108.548 15.8023 108.702 15.8601C108.856 15.9179 108.995 15.9805 109.121 16.0479V16.6112H105.293V16.0479C105.408 15.9708 105.524 15.9034 105.64 15.8457C105.765 15.7879 105.914 15.7397 106.087 15.7012V10.2123H104.498C104.489 10.7227 104.46 11.2571 104.412 11.8157C104.364 12.3646 104.287 12.9038 104.181 13.4334C104.084 13.9631 103.954 14.4638 103.791 14.9357C103.627 15.3979 103.43 15.7927 103.198 16.1201C103.006 16.3897 102.794 16.5823 102.563 16.6979C102.332 16.8134 102.125 16.852 101.942 16.8134C101.817 16.746 101.701 16.6401 101.595 16.4957C101.489 16.3416 101.398 16.1827 101.321 16.019C101.244 15.8553 101.181 15.6916 101.133 15.5279C101.085 15.3642 101.056 15.2245 101.046 15.109L101.378 14.6179L102.736 14.979Z" fill="white"/>
<path d="M112.99 12.2634C113.153 12.2442 113.37 12.2201 113.64 12.1912C113.909 12.1623 114.237 12.1479 114.622 12.1479C115.411 12.1479 116.042 12.3308 116.514 12.6968C116.986 13.0531 117.222 13.5923 117.222 14.3145C117.222 14.6997 117.145 15.0416 116.991 15.3401C116.837 15.629 116.625 15.8745 116.355 16.0768C116.085 16.2694 115.763 16.4186 115.387 16.5245C115.021 16.6208 114.622 16.669 114.188 16.669C114.054 16.669 113.861 16.6642 113.611 16.6545C113.37 16.6545 113.105 16.6497 112.816 16.6401C112.537 16.6305 112.258 16.6208 111.978 16.6112C111.709 16.6112 111.482 16.6112 111.3 16.6112H109.956V16.0479C110.101 15.9708 110.255 15.9082 110.418 15.8601C110.582 15.8023 110.746 15.7494 110.91 15.7012V10.299C110.727 10.2605 110.558 10.2123 110.404 10.1546C110.25 10.0968 110.101 10.0294 109.956 9.95233V9.389H113.856V9.95233C113.625 10.0871 113.336 10.2027 112.99 10.299V12.2634ZM112.99 15.7879C113.086 15.8071 113.187 15.8216 113.293 15.8312C113.408 15.8408 113.519 15.8457 113.625 15.8457C113.827 15.8457 114.01 15.8216 114.174 15.7734C114.338 15.7253 114.477 15.6434 114.593 15.5279C114.708 15.4027 114.795 15.2438 114.853 15.0512C114.92 14.849 114.954 14.5986 114.954 14.3001C114.954 14.0401 114.92 13.8283 114.853 13.6645C114.795 13.4912 114.708 13.3564 114.593 13.2601C114.487 13.1542 114.357 13.082 114.203 13.0434C114.058 12.9953 113.9 12.9712 113.726 12.9712C113.611 12.9712 113.485 12.976 113.351 12.9857C113.225 12.9953 113.105 13.0146 112.99 13.0434V15.7879Z" fill="white"/>
<path d="M124.037 15.4412C123.97 15.6338 123.859 15.812 123.705 15.9757C123.551 16.1297 123.363 16.2694 123.142 16.3945C122.93 16.5197 122.684 16.616 122.405 16.6834C122.136 16.7508 121.851 16.7845 121.553 16.7845C120.917 16.7845 120.368 16.6979 119.906 16.5245C119.454 16.3416 119.078 16.0864 118.78 15.759C118.481 15.422 118.26 15.0223 118.115 14.5601C117.971 14.0883 117.898 13.5683 117.898 13.0001C117.898 11.7771 118.231 10.8431 118.895 10.1979C119.569 9.54307 120.523 9.21567 121.755 9.21567C122.227 9.21567 122.66 9.26863 123.055 9.37455C123.45 9.47085 123.777 9.58641 124.037 9.72122C124.018 9.88492 123.989 10.0679 123.951 10.2701C123.922 10.4627 123.883 10.6601 123.835 10.8623C123.797 11.0549 123.748 11.2475 123.691 11.4401C123.633 11.6231 123.575 11.7771 123.517 11.9023H122.81L122.203 10.1834C122.136 10.1353 122.063 10.1016 121.986 10.0823C121.909 10.0534 121.794 10.039 121.64 10.039C121.389 10.039 121.173 10.0871 120.99 10.1834C120.807 10.2701 120.648 10.4242 120.513 10.6457C120.388 10.8671 120.291 11.1608 120.224 11.5268C120.166 11.8927 120.137 12.3453 120.137 12.8846C120.137 13.2794 120.181 13.6453 120.267 13.9823C120.354 14.3097 120.484 14.5986 120.657 14.849C120.84 15.0897 121.067 15.2823 121.336 15.4268C121.606 15.5616 121.924 15.629 122.29 15.629C122.627 15.629 122.92 15.5808 123.171 15.4845C123.421 15.3883 123.633 15.2727 123.806 15.1379L124.037 15.4412Z" fill="white"/>
<path d="M129.387 9.389H132.695V9.95233C132.599 10.0294 132.478 10.0968 132.334 10.1546C132.199 10.2027 132.016 10.2653 131.785 10.3423C131.458 10.7371 131.121 11.1175 130.774 11.4834C130.427 11.8397 130.09 12.172 129.763 12.4801C129.975 12.7112 130.191 12.9616 130.413 13.2312C130.634 13.5008 130.851 13.7801 131.063 14.069C131.284 14.3483 131.506 14.6275 131.727 14.9068C131.958 15.186 132.189 15.4508 132.421 15.7012L133.027 16.0479V16.6112H130.759L130.297 16.279C129.883 15.7783 129.541 15.2775 129.272 14.7768C129.012 14.276 128.747 13.7801 128.477 13.289H127.899V15.7012C128.208 15.7879 128.477 15.9034 128.708 16.0479V16.6112H124.866V16.0479C125.126 15.8938 125.444 15.7783 125.819 15.7012V10.299C125.482 10.2316 125.165 10.116 124.866 9.95233V9.389H128.549V9.95233C128.453 10.0197 128.357 10.0823 128.261 10.1401C128.174 10.1979 128.054 10.2508 127.899 10.299V12.6534L128.564 12.509C128.843 12.1912 129.122 11.8494 129.402 11.4834C129.681 11.1175 129.936 10.7371 130.167 10.3423C130.004 10.2749 129.864 10.2123 129.748 10.1546C129.633 10.0968 129.512 10.0294 129.387 9.95233V9.389Z" fill="white"/>
<path d="M133.442 9.389H137.285V9.95233C137.179 10.0101 137.054 10.0679 136.909 10.1257C136.774 10.1834 136.611 10.2412 136.418 10.299V13.549L136.259 14.8923H136.331L136.895 13.809L139.538 9.389H142.268V9.95233C141.96 10.1257 141.642 10.2412 141.315 10.299V15.7012C141.498 15.7494 141.671 15.8023 141.835 15.8601C141.998 15.9082 142.143 15.9708 142.268 16.0479V16.6112H138.426V16.0479C138.695 15.8938 138.984 15.7783 139.292 15.7012V12.2923L139.437 11.1512H139.365L138.816 12.2346L136.201 16.6112H133.442V16.0479C133.606 15.9708 133.765 15.9082 133.919 15.8601C134.073 15.8023 134.232 15.7494 134.396 15.7012V10.299C134.02 10.2412 133.702 10.1257 133.442 9.95233V9.389Z" fill="white"/>
<path d="M143.105 9.389H146.947V9.95233C146.841 10.0101 146.716 10.0679 146.572 10.1257C146.437 10.1834 146.273 10.2412 146.081 10.299V13.549L145.922 14.8923H145.994L146.557 13.809L149.201 9.389H151.931V9.95233C151.622 10.1257 151.305 10.2412 150.977 10.299V15.7012C151.16 15.7494 151.334 15.8023 151.497 15.8601C151.661 15.9082 151.805 15.9708 151.931 16.0479V16.6112H148.088V16.0479C148.358 15.8938 148.647 15.7783 148.955 15.7012V12.2923L149.099 11.1512H149.027L148.478 12.2346L145.864 16.6112H143.105V16.0479C143.269 15.9708 143.428 15.9082 143.582 15.8601C143.736 15.8023 143.895 15.7494 144.058 15.7012V10.299C143.683 10.2412 143.365 10.1257 143.105 9.95233V9.389ZM147.698 8.58011C146.745 8.58011 146.052 8.40678 145.618 8.06011C145.185 7.71345 144.968 7.25122 144.968 6.67345C145.103 6.55789 145.301 6.47122 145.561 6.41345C145.821 6.34604 146.09 6.30271 146.369 6.28345L146.861 6.47122V7.75678C147.101 7.8627 147.385 7.91567 147.713 7.91567C147.809 7.91567 147.939 7.90604 148.103 7.88678C148.276 7.86752 148.43 7.83863 148.565 7.80011V6.47122L149.056 6.28345C149.316 6.30271 149.571 6.34122 149.822 6.399C150.072 6.45678 150.265 6.54826 150.399 6.67345C150.399 7.25122 150.178 7.71345 149.735 8.06011C149.302 8.40678 148.623 8.58011 147.698 8.58011Z" fill="white"/>
<path d="M156.69 13.0001C156.69 12.4127 156.776 11.8879 156.95 11.4257C157.133 10.9538 157.388 10.5542 157.715 10.2268C158.052 9.89937 158.457 9.649 158.929 9.47567C159.4 9.30233 159.935 9.21567 160.532 9.21567C161.206 9.21567 161.784 9.31196 162.265 9.50455C162.756 9.68752 163.156 9.94752 163.464 10.2846C163.782 10.612 164.013 11.0116 164.157 11.4834C164.302 11.9457 164.374 12.4512 164.374 13.0001C164.374 13.5875 164.287 14.1171 164.114 14.589C163.941 15.0512 163.686 15.446 163.349 15.7734C163.021 16.1008 162.617 16.3512 162.135 16.5245C161.663 16.6979 161.129 16.7845 160.532 16.7845C159.877 16.7845 159.309 16.6931 158.827 16.5101C158.346 16.3175 157.946 16.0575 157.629 15.7301C157.311 15.3931 157.075 14.9934 156.921 14.5312C156.767 14.0594 156.69 13.549 156.69 13.0001ZM158.929 13.0001C158.929 13.4334 158.953 13.8331 159.001 14.199C159.059 14.5553 159.155 14.8586 159.29 15.109C159.424 15.3594 159.607 15.5568 159.839 15.7012C160.07 15.836 160.368 15.9034 160.734 15.9034C160.946 15.9034 161.139 15.8553 161.312 15.759C161.485 15.6531 161.634 15.4894 161.76 15.2679C161.885 15.0368 161.976 14.7383 162.034 14.3723C162.102 13.9968 162.135 13.5394 162.135 13.0001C162.135 12.5571 162.106 12.1575 162.049 11.8012C162 11.4449 161.909 11.1416 161.774 10.8912C161.649 10.6408 161.476 10.4483 161.254 10.3134C161.033 10.169 160.753 10.0968 160.416 10.0968C160.166 10.0968 159.949 10.1497 159.766 10.2557C159.583 10.352 159.429 10.5157 159.304 10.7468C159.179 10.9683 159.083 11.2668 159.015 11.6423C158.957 12.0083 158.929 12.4608 158.929 13.0001Z" fill="white"/>
<path d="M170.657 16.6112H166.555V16.0479C166.699 15.9708 166.863 15.9034 167.046 15.8457C167.229 15.7879 167.402 15.7397 167.566 15.7012V10.2123H166.511L165.876 12.2057H165.269C165.221 12.0034 165.173 11.7771 165.125 11.5268C165.086 11.2764 165.052 11.026 165.024 10.7757C164.995 10.5157 164.966 10.2653 164.937 10.0246C164.918 9.78381 164.908 9.57196 164.908 9.389H172.304C172.304 9.56233 172.294 9.76937 172.275 10.0101C172.255 10.2508 172.226 10.5012 172.188 10.7612C172.159 11.0116 172.121 11.2668 172.072 11.5268C172.034 11.7771 171.991 12.0034 171.942 12.2057H171.336L170.7 10.2123H169.646V15.7012C169.867 15.759 170.055 15.812 170.209 15.8601C170.363 15.9082 170.512 15.9708 170.657 16.0479V16.6112Z" fill="white"/>
<path d="M173.6 16.6112L172.82 18.749H172.257C172.199 18.2771 172.146 17.7668 172.098 17.2179C172.06 16.6786 172.04 16.1731 172.04 15.7012H173.095C173.21 15.5664 173.34 15.3642 173.485 15.0945C173.629 14.8249 173.764 14.4783 173.889 14.0545C174.024 13.6212 174.135 13.1108 174.222 12.5234C174.318 11.9264 174.366 11.2331 174.366 10.4434C174.164 10.3953 173.966 10.3279 173.774 10.2412C173.591 10.1546 173.432 10.0583 173.297 9.95233V9.389H180.158V9.95233C179.898 10.1257 179.58 10.2412 179.205 10.299V15.7012H180.548C180.558 16.1731 180.539 16.6786 180.49 17.2179C180.452 17.7668 180.399 18.2771 180.332 18.749H179.768L178.988 16.6112H173.6ZM175.42 10.299C175.42 11.1079 175.377 11.8108 175.29 12.4079C175.204 13.0049 175.098 13.5201 174.973 13.9534C174.848 14.3868 174.718 14.7479 174.583 15.0368C174.448 15.316 174.332 15.5375 174.236 15.7012H177.125V10.299H175.42Z" fill="white"/>
<path d="M184.238 12.2634C184.402 12.2442 184.604 12.2201 184.845 12.1912C185.095 12.1623 185.413 12.1479 185.798 12.1479C186.549 12.1479 187.156 12.3308 187.618 12.6968C188.09 13.0531 188.326 13.5923 188.326 14.3145C188.326 14.6997 188.249 15.0416 188.095 15.3401C187.951 15.629 187.744 15.8745 187.474 16.0768C187.214 16.2694 186.901 16.4186 186.535 16.5245C186.179 16.6208 185.789 16.669 185.365 16.669C185.23 16.669 185.042 16.6642 184.802 16.6545C184.571 16.6545 184.315 16.6497 184.036 16.6401C183.766 16.6305 183.497 16.6208 183.227 16.6112C182.958 16.6112 182.731 16.6112 182.548 16.6112H181.205V16.0479C181.359 15.9612 181.513 15.8938 181.667 15.8457C181.831 15.7975 181.995 15.7494 182.158 15.7012V10.299C181.975 10.2701 181.807 10.2268 181.653 10.169C181.499 10.1016 181.349 10.0294 181.205 9.95233V9.389H185.105V9.95233C184.874 10.0871 184.585 10.2027 184.238 10.299V12.2634ZM184.238 15.7879C184.335 15.8071 184.436 15.8216 184.542 15.8312C184.657 15.8408 184.768 15.8457 184.874 15.8457C185.259 15.8457 185.553 15.7301 185.755 15.499C185.957 15.2583 186.058 14.8586 186.058 14.3001C186.058 13.7801 185.948 13.4286 185.726 13.2457C185.514 13.0627 185.254 12.9712 184.946 12.9712C184.84 12.9712 184.725 12.976 184.599 12.9857C184.474 12.9953 184.354 13.0146 184.238 13.0434V15.7879ZM192.356 16.6112H188.528V16.0479C188.644 15.9805 188.764 15.9179 188.889 15.8601C189.015 15.8023 189.159 15.7494 189.323 15.7012V10.299C188.957 10.2316 188.668 10.116 188.456 9.95233V9.389H192.356V9.95233C192.241 10.0294 192.101 10.0968 191.937 10.1546C191.774 10.2027 191.595 10.2508 191.403 10.299V15.7012C191.566 15.7494 191.725 15.8023 191.879 15.8601C192.034 15.9082 192.192 15.9708 192.356 16.0479V16.6112Z" fill="white"/>
<path d="M197.731 12.7401L200.013 15.7012C200.263 15.7783 200.499 15.8938 200.721 16.0479V16.6112H197.037V16.0623C197.143 15.9853 197.249 15.9179 197.355 15.8601C197.471 15.7927 197.586 15.7397 197.702 15.7012L196.329 13.7368L195.001 15.7012C195.135 15.7494 195.251 15.8023 195.347 15.8601C195.453 15.9179 195.554 15.9805 195.651 16.0479V16.6112H192.921V16.0479C193.055 15.9708 193.176 15.9034 193.282 15.8457C193.397 15.7879 193.527 15.7397 193.672 15.7012L195.809 13.0434L193.657 10.299C193.522 10.2508 193.402 10.2027 193.296 10.1546C193.19 10.0968 193.094 10.0294 193.007 9.95233V9.389H196.633V9.93789C196.517 10.0149 196.411 10.0871 196.315 10.1546C196.228 10.2123 196.118 10.2605 195.983 10.299L197.239 12.0901L198.438 10.299C198.275 10.2508 198.145 10.1979 198.048 10.1401C197.952 10.0823 197.865 10.0197 197.788 9.95233V9.389H200.461V9.95233C200.364 10.0197 200.258 10.0823 200.143 10.1401C200.027 10.1979 199.883 10.2508 199.709 10.299L197.731 12.7401Z" fill="white"/>
<path d="M64.9028 25.7053H61.9321V33.9446H60.7197V25.7053H57.7554V24.7024H64.9028V25.7053Z" fill="white"/>
<path d="M67.8799 32.2244L69.4795 27.0764H70.7363L67.9751 35.0046C67.5477 36.1472 66.8685 36.7185 65.9375 36.7185L65.7153 36.6994L65.2773 36.6169V35.6648L65.5947 35.6902C65.9925 35.6902 66.3014 35.6098 66.5215 35.449C66.7458 35.2882 66.9298 34.994 67.0737 34.5666L67.334 33.8684L64.8838 27.0764H66.166L67.8799 32.2244Z" fill="white"/>
<path d="M77.5918 30.5867C77.5918 31.6319 77.3527 32.474 76.8745 33.113C76.3963 33.752 75.7488 34.0715 74.9321 34.0715C74.0984 34.0715 73.4425 33.807 72.9643 33.2781V36.5852H71.79V27.0764H72.8628L72.9199 27.8381C73.3981 27.2457 74.0625 26.9495 74.9131 26.9495C75.7383 26.9495 76.3899 27.2605 76.8681 27.8826C77.3506 28.5046 77.5918 29.37 77.5918 30.4788V30.5867ZM76.4175 30.4534C76.4175 29.6789 76.2524 29.0675 75.9223 28.6189C75.5923 28.1703 75.1395 27.946 74.5639 27.946C73.853 27.946 73.3198 28.2613 72.9643 28.8918V32.1736C73.3156 32.7999 73.853 33.113 74.5766 33.113C75.1395 33.113 75.5859 32.8909 75.916 32.4465C76.2503 31.998 76.4175 31.3336 76.4175 30.4534Z" fill="white"/>
<path d="M83.33 33.9446C83.2623 33.8092 83.2073 33.5679 83.165 33.2209C82.6191 33.788 81.9674 34.0715 81.2099 34.0715C80.5328 34.0715 79.9764 33.8811 79.5405 33.5002C79.1089 33.1151 78.893 32.6285 78.893 32.0403C78.893 31.3251 79.1639 30.7707 79.7055 30.3772C80.2514 29.9794 81.0174 29.7805 82.0034 29.7805H83.146V29.241C83.146 28.8305 83.0232 28.5046 82.7778 28.2634C82.5324 28.018 82.1705 27.8953 81.6924 27.8953C81.2734 27.8953 80.9222 28.0011 80.6386 28.2126C80.3551 28.4242 80.2134 28.6803 80.2134 28.9807H79.0327C79.0327 28.6379 79.1533 28.3079 79.3945 27.9905C79.6399 27.6689 79.97 27.415 80.3847 27.2288C80.8037 27.0426 81.2628 26.9495 81.7622 26.9495C82.5535 26.9495 83.1735 27.1484 83.622 27.5461C84.0706 27.9397 84.3034 28.4835 84.3203 29.1775V32.3386C84.3203 32.9691 84.4007 33.4706 84.5615 33.843V33.9446H83.33ZM81.3813 33.0496C81.7495 33.0496 82.0986 32.9543 82.4287 32.7639C82.7588 32.5735 82.9979 32.3259 83.146 32.0212V30.6121H82.2256C80.7868 30.6121 80.0674 31.0331 80.0674 31.8752C80.0674 32.2434 80.1901 32.5312 80.4355 32.7385C80.681 32.9459 80.9962 33.0496 81.3813 33.0496Z" fill="white"/>
<path d="M90.5981 28.0476H87.4306V33.9446H86.25V27.0764H90.5981V28.0476Z" fill="white"/>
<path d="M94.3432 34.0715C93.4122 34.0715 92.6547 33.7668 92.0708 33.1575C91.4868 32.5439 91.1948 31.725 91.1948 30.7009V30.4851C91.1948 29.8038 91.3239 29.1965 91.582 28.6633C91.8444 28.1259 92.2083 27.7069 92.6738 27.4065C93.1435 27.1018 93.6513 26.9495 94.1972 26.9495C95.0901 26.9495 95.7841 27.2436 96.2792 27.8318C96.7744 28.42 97.0219 29.2621 97.0219 30.3581V30.8469H92.3691C92.386 31.524 92.5828 32.072 92.9594 32.491C93.3403 32.9057 93.8227 33.113 94.4067 33.113C94.8214 33.113 95.1726 33.0284 95.4604 32.8591C95.7482 32.6898 96 32.4656 96.2158 32.1863L96.9331 32.7449C96.3575 33.6293 95.4943 34.0715 94.3432 34.0715ZM94.1972 27.9143C93.7233 27.9143 93.3255 28.0878 93.0039 28.4348C92.6822 28.7776 92.4834 29.26 92.4072 29.8821H95.8476V29.7932C95.8138 29.1965 95.6529 28.7353 95.3652 28.4094C95.0774 28.0793 94.6881 27.9143 94.1972 27.9143Z" fill="white"/>
<path d="M103.998 33.9446H102.824V31.012H99.6689V33.9446H98.4882V27.0764H99.6689V30.0535H102.824V27.0764H103.998V33.9446Z" fill="white"/>
<path d="M110.993 28.0286H108.689V33.9446H107.515V28.0286H105.255V27.0764H110.993V28.0286Z" fill="white"/>
<path d="M114.383 33.113C114.802 33.113 115.168 32.9861 115.481 32.7322C115.794 32.4783 115.968 32.1609 116.001 31.78H117.112C117.091 32.1736 116.956 32.5481 116.706 32.9036C116.456 33.259 116.122 33.5426 115.703 33.7541C115.288 33.9657 114.848 34.0715 114.383 34.0715C113.448 34.0715 112.703 33.7605 112.148 33.1384C111.598 32.5121 111.323 31.6573 111.323 30.574V30.3772C111.323 29.7086 111.446 29.114 111.691 28.5935C111.937 28.073 112.288 27.6689 112.745 27.3811C113.206 27.0933 113.75 26.9495 114.376 26.9495C115.147 26.9495 115.786 27.1801 116.293 27.6414C116.805 28.1026 117.078 28.7014 117.112 29.4377H116.001C115.968 28.9934 115.798 28.6295 115.494 28.3459C115.193 28.0582 114.821 27.9143 114.376 27.9143C113.78 27.9143 113.316 28.1301 112.986 28.5618C112.66 28.9892 112.497 29.6091 112.497 30.4216V30.6438C112.497 31.4351 112.66 32.0445 112.986 32.4719C113.312 32.8993 113.778 33.113 114.383 33.113Z" fill="white"/>
<path d="M123.536 28.0286H121.232V33.9446H120.058V28.0286H117.798V27.0764H123.536V28.0286Z" fill="white"/>
<path d="M124.787 33.9446V27.0764H127.465C128.379 27.0764 129.08 27.2372 129.566 27.5588C130.057 27.8762 130.303 28.3438 130.303 28.9617C130.303 29.279 130.207 29.5668 130.017 29.8249C129.827 30.0789 129.545 30.2735 129.173 30.4089C129.587 30.5063 129.92 30.6967 130.169 30.9802C130.423 31.2637 130.55 31.6023 130.55 31.9958C130.55 32.6264 130.317 33.1088 129.852 33.4431C129.391 33.7774 128.737 33.9446 127.891 33.9446H124.787ZM125.961 30.9294V32.9988H127.903C128.394 32.9988 128.76 32.9078 129.001 32.7258C129.247 32.5439 129.37 32.2878 129.37 31.9578C129.37 31.2722 128.866 30.9294 127.859 30.9294H125.961ZM125.961 29.99H127.478C128.578 29.99 129.128 29.6684 129.128 29.0251C129.128 28.3819 128.608 28.0497 127.567 28.0286H125.961V29.99Z" fill="white"/>
<path d="M131.794 30.447C131.794 29.7742 131.926 29.169 132.188 28.6316C132.454 28.0942 132.823 27.6794 133.292 27.3874C133.766 27.0955 134.306 26.9495 134.911 26.9495C135.846 26.9495 136.602 27.2732 137.177 27.9207C137.757 28.5681 138.047 29.4293 138.047 30.5041V30.5867C138.047 31.2553 137.918 31.8562 137.66 32.3894C137.406 32.9184 137.04 33.331 136.561 33.6272C136.087 33.9234 135.542 34.0715 134.924 34.0715C133.993 34.0715 133.237 33.7478 132.658 33.1003C132.082 32.4529 131.794 31.5959 131.794 30.5295V30.447ZM132.975 30.5867C132.975 31.3484 133.151 31.9599 133.502 32.4211C133.857 32.8824 134.331 33.113 134.924 33.113C135.52 33.113 135.994 32.8803 136.346 32.4148C136.697 31.9451 136.872 31.2891 136.872 30.447C136.872 29.6938 136.693 29.0844 136.333 28.6189C135.977 28.1492 135.503 27.9143 134.911 27.9143C134.331 27.9143 133.864 28.1449 133.508 28.6062C133.153 29.0675 132.975 29.7276 132.975 30.5867Z" fill="white"/>
<path d="M22.1311 21.9872C22.4828 22.0556 22.5461 21.8834 22.6035 21.7612C22.6601 21.6384 22.8286 21.4507 23.0744 21.3345C23.3209 21.2175 23.6513 21.0202 23.7801 20.9025C23.9103 20.7848 24.0494 20.6383 24.3452 20.6266C24.6418 20.6141 24.7889 20.4698 24.8817 20.2792C24.9766 20.0887 24.9104 19.6884 24.9751 19.5463C25.0399 19.4058 25.204 19.1563 25.3004 18.9363C25.3982 18.717 25.3136 18.7354 25.1686 18.7987C25.0237 18.8605 24.8971 18.9113 24.8412 19.1063C24.7838 19.302 24.7316 19.3469 24.5491 19.4801C24.3651 19.6126 24.2319 19.7075 24.0354 19.7708C23.8368 19.8333 23.4519 19.954 23.2348 20.06C23.0325 20.1586 22.8183 20.2763 22.5843 20.4161L21.0906 21.9099C21.3695 21.8812 21.8169 21.9261 22.1311 21.9872Z" fill="#3FA9F5"/>
<path d="M38.3474 6.86548C38.2753 6.92435 38.2224 6.97806 38.2106 7.01633C38.1723 7.15172 38.1517 7.7404 38.0141 7.9928C37.8794 8.24519 37.8331 8.73012 37.8316 8.82063C37.8279 8.9104 37.8169 9.06934 37.7257 9.21799C37.6366 9.36589 37.4541 9.58149 37.5204 9.69114C37.5858 9.80078 37.8485 9.99725 37.7102 10.1385C37.5711 10.2798 37.2341 10.4844 37.3312 10.6934C37.4321 10.9031 37.5895 11.2865 37.5822 11.4432C37.5748 11.5999 37.4799 11.7522 37.5777 11.8567C37.6764 11.9612 37.7588 12.1754 37.6153 12.4035C37.4718 12.6323 36.7691 13.6213 36.3371 13.9826C35.9066 14.3446 35.5085 14.7516 35.3857 14.9856C35.2628 15.2196 35.2488 15.3984 35.187 15.4801C35.1259 15.5617 34.9478 15.6876 34.8198 15.8104C34.6932 15.9333 34.7926 16.0077 34.8588 16.1166C34.925 16.2262 34.8698 16.3991 34.7653 16.5051C34.6601 16.6111 34.3783 16.7626 34.5534 16.8767C34.7278 16.9915 34.772 17.1872 34.6888 17.2763C34.6064 17.3653 34.4239 17.6059 34.4121 17.695C34.3989 17.784 33.9927 17.7869 33.7992 17.6552C33.6071 17.5235 33.2892 17.3138 33.3577 17.2483C33.4261 17.1828 33.6071 17.0871 33.7697 16.8841C33.9338 16.681 33.914 16.3918 34.0067 16.3594C34.1031 16.3277 34.1274 16.1504 33.9625 16.0371C33.7962 15.9238 33.7374 15.8104 33.8978 15.6221C34.0597 15.4337 34.2466 15.0687 33.9669 14.9098C33.6873 14.7508 33.3753 14.8281 33.0148 14.9436C32.6527 15.0599 32.7145 15.1438 32.2502 15.5757C31.7837 16.0077 31.9765 16.2453 31.6924 16.5529C31.4099 16.8598 31.4342 17.0136 31.1509 17.3204C30.869 17.628 30.4393 17.8995 30.3017 18.1365C30.1633 18.3734 30.3216 18.4249 30.6181 18.2402C30.9154 18.0563 30.78 18.0518 31.2222 18.007C31.6659 17.9628 31.6689 18.0386 31.9735 17.8995C32.2804 17.7612 32.4445 17.6633 32.5755 17.8017C32.7072 17.9407 32.936 18.2432 33.0376 18.483C33.1406 18.7229 33.1685 19.0577 33.0847 19.4529C32.9993 19.8473 33.0501 20.035 32.8212 20.2748C32.5916 20.5133 32.2745 20.6354 31.9691 20.7745C31.6637 20.9128 31.7631 20.851 31.4709 21.0063C31.1788 21.1623 31.1185 21.0482 30.9816 20.8488C30.8433 20.6494 30.4253 20.7266 30.2384 20.8819C30.053 21.0372 29.4179 21.7171 29.2045 21.8378C28.9926 21.9592 28.4098 22.1351 28.2178 22.3337C28.025 22.5332 27.9867 22.709 28.1184 22.8319C28.2523 22.9563 28.387 23.3963 28.0485 23.5597C27.71 23.723 27.5121 23.8474 27.4201 24.0748C27.3296 24.3036 26.9057 24.5464 26.6489 24.6458C26.3943 24.7466 25.827 24.9386 25.6232 25.2124C25.4208 25.4854 25.2663 25.7194 25.0271 25.8217C24.788 25.9254 24.3582 26.1969 24.0985 26.2212C23.8387 26.2455 23.632 25.8864 23.0631 25.9887C22.4921 26.091 21.9005 26.2345 21.7658 26.3368C21.6297 26.4383 21.4818 26.6429 21.3184 26.7422C21.1536 26.8393 21.0123 27.0012 20.5495 27.0711C20.0896 27.144 19.9505 27.1705 19.6554 27.3397C19.3618 27.5097 19.1043 27.7305 18.8511 27.8313C18.5951 27.9313 18.3177 27.8776 18.194 28.222C18.0719 28.5664 18.0123 28.9946 17.7798 29.1573C17.5465 29.3214 17.4979 29.4494 17.297 29.4818C17.0984 29.5156 17.0527 28.7562 16.5605 28.8386C16.066 28.9211 15.9033 29.0042 15.7481 28.938C15.5913 28.871 15.5207 28.8305 15.2904 28.8747C15.0586 28.9181 14.5464 28.8166 14.3846 29.1109C14.2241 29.4045 14.024 29.4369 13.8569 29.8953C13.6862 30.3538 13.6619 30.4259 13.9033 30.5333C14.1447 30.6422 14.1307 30.746 13.9968 30.8482C13.8606 30.9498 13.5295 31.1602 13.4368 31.4031C13.3433 31.6459 13.3227 31.7938 13.191 31.9859C13.0593 32.1779 12.7811 32.4414 12.907 32.5186C13.0328 32.5959 13.1719 32.7806 13.0284 32.8372C12.8864 32.8924 12.5861 32.9866 12.3595 33.3317C12.1299 33.6768 11.634 34.1198 11.4169 34.3759C11.3403 34.4664 11.2646 34.5429 11.1799 34.6121C14.5376 37.3546 18.8254 39 23.4995 39C34.2694 39 42.9995 30.2699 42.9995 19.5C42.9995 14.6787 41.246 10.2695 38.3474 6.86548Z" fill="#3FA9F5"/>
<path d="M21.7582 20.6775C21.5418 20.6473 21.3535 20.8166 21.2681 20.8953C21.1813 20.9733 21.1283 20.9211 20.9561 20.8673C20.7824 20.8136 20.6051 21.0005 20.5565 21.1433C20.5065 21.2868 20.2526 21.2669 20.1577 21.1933C20.0628 21.1197 19.8082 21.2205 19.6581 21.3213C19.5087 21.4207 19.374 21.5671 19.2166 21.7268C19.0591 21.885 19.4035 22.0388 19.5175 22.1595C19.6264 22.2743 19.8015 22.2183 19.9075 22.1727C20.0142 22.1271 20.232 22.0675 20.3704 22.016C20.508 21.9652 20.7265 21.9755 20.9848 21.9203C21.0128 21.9144 21.0554 21.9137 21.0893 21.9108L22.5831 20.417C22.5661 20.4273 22.5507 20.4354 22.5338 20.4457C22.2792 20.598 21.9716 20.7062 21.7582 20.6775Z" fill="#70CF29"/>
<path d="M8.46586 31.1499C9.20245 30.91 9.85294 30.1175 10.1127 29.6915C10.371 29.2662 11.0296 28.414 11.446 27.8688C11.8625 27.3243 12.9391 26.6502 13.8434 26.3522C14.7463 26.0556 15.7633 25.6737 16.2835 25.1035C16.8023 24.5332 16.7662 24.3676 17.1077 24.2138C17.4491 24.0608 17.8958 23.882 18.0025 23.695C18.1077 23.5096 18.1128 22.8878 18.6375 22.7193C19.1622 22.5508 19.143 22.5434 19.1894 22.3242C19.235 22.1049 18.9274 21.9415 18.7626 21.9187C18.6007 21.8966 18.1342 22.0129 18.1989 21.8562C18.2659 21.7002 18.5786 21.291 18.9811 21.1063C19.3829 20.9209 19.8634 20.5957 19.9826 20.3859C20.1018 20.177 20.4344 19.8318 20.8362 19.6464C21.2395 19.4617 21.7928 19.146 22.0643 19.0334C22.3359 18.9201 23.0231 18.6383 23.1696 18.5537C23.3175 18.4683 23.8664 18.3035 23.8929 18.0062C23.9172 17.7089 23.6817 17.6765 23.954 17.3381C24.2255 16.9988 24.3881 16.9157 24.6295 16.4823C24.8687 16.0496 24.94 15.9679 25.2807 15.7898C25.6214 15.6118 26.461 15.0952 26.5663 15.0945C26.6715 15.0937 26.915 15.0827 27.1064 14.7773C27.2977 14.4719 27.5346 14.505 27.723 14.4557C27.9099 14.4064 28.1873 13.9178 28.4243 13.8442C28.659 13.7714 28.7451 13.4822 28.7738 13.2762C28.8025 13.0701 28.9121 12.6029 29.1454 12.5447C29.3787 12.4866 29.5347 12.1165 29.5928 11.9149C29.6502 11.7118 29.726 11.165 30.0086 11.0848C30.2904 11.0024 30.1925 11.0495 30.3573 10.8464C30.52 10.6426 30.6583 10.3004 30.9114 10.0951C31.1675 9.8898 31.2867 9.78531 31.3559 9.49391C31.4273 9.20252 31.6245 8.31214 31.9953 7.80661C32.3662 7.30108 32.7341 7.03618 33.144 6.68592C33.5531 6.33565 33.5649 5.91622 33.7967 5.66235C34.0278 5.40775 33.8688 5.25028 34.0123 5.08913C34.1529 4.92798 34.172 4.79552 34.1985 4.70869C34.2257 4.62113 34.0999 4.45409 34.275 4.26718C34.4501 4.08101 34.6002 4.0869 34.7585 3.92796C34.8644 3.822 34.8416 3.73222 34.8409 3.64392C31.6458 1.35249 27.7326 0 23.5 0C12.7301 0 4 8.7301 4 19.5C4 23.9555 5.49745 28.0594 8.01184 31.3427C8.15828 31.2691 8.30986 31.2 8.46586 31.1499Z" fill="#70CF29"/>
</g>
<defs>
<filter id="filter0_d_215:4" x="0" y="0" width="204.721" height="47" filterUnits="userSpaceOnUse" color-interpolation-filters="sRGB">
<feFlood flood-opacity="0" result="BackgroundImageFix"/>
<feColorMatrix in="SourceAlpha" type="matrix" values="0 0 0 0 0 0 0 0 0 0 0 0 0 0 0 0 0 0 127 0" result="hardAlpha"/>
<feOffset dy="4"/>
<feGaussianBlur stdDeviation="2"/>
<feComposite in2="hardAlpha" operator="out"/>
<feColorMatrix type="matrix" values="0 0 0 0 0 0 0 0 0 0 0 0 0 0 0 0 0 0 0.25 0"/>
<feBlend mode="normal" in2="BackgroundImageFix" result="effect1_dropShadow_215:4"/>
<feBlend mode="normal" in="SourceGraphic" in2="effect1_dropShadow_215:4" result="shape"/>
</filter>
</defs>
</svg>
